<svg xmlns="http://www.w3.org/2000/svg" shape-rendering="geometricPrecision" text-rendering="geometricPrecision" image-rendering="optimizeQuality" fill-rule="evenodd" clip-rule="evenodd" viewBox="0 0 512 511.999"><path d="M189.758 8.785c136.533-36.586 276.873 44.441 313.456 180.973 36.587 136.533-44.441 276.873-180.973 313.456C185.706 539.798 45.368 458.773 8.785 322.241-27.801 185.706 53.226 45.368 189.758 8.785zm7.363 126.673c2.277.72 4.468 1.821 6.546 3.255 13.213 6.919 26.064 15.831 38.612 27.365 6.081 5.597 6.475 15.07.879 21.151-5.262 5.716-13.95 6.409-20.025 1.82-.986 27.064-15.105 48.532-32.375 48.532-17.914 0-32.436-23.086-32.436-51.56 0-11.674 2.445-22.439 6.56-31.083-13.728-4.29-28.088-6.812-43.097-8.424-8.219-.874-14.174-8.247-13.3-16.466.873-8.219 8.246-14.174 16.465-13.3 20.877 2.245 40.893 6.146 60.384 13.67a177.777 177.777 0 0111.787 5.04zm189.928-18.71c8.219-.874 15.592 5.081 16.466 13.3.873 8.219-5.082 15.592-13.301 16.466-15.011 1.612-29.369 4.131-43.094 8.424 4.115 8.644 6.558 19.409 6.558 31.083 0 28.474-14.522 51.56-32.433 51.56-17.274 0-31.393-21.468-32.379-48.532-6.075 4.589-14.762 3.896-20.024-1.82-5.597-6.081-5.202-15.554.878-21.151 12.551-11.537 25.403-20.449 38.618-27.37 2.076-1.432 4.266-2.53 6.541-3.25a179.381 179.381 0 0111.787-5.04c19.493-7.524 39.507-11.425 60.383-13.67zM142.99 373.631c-8.342 6.39-16.102 13.588-23.097 21.577l-.041.044a.933.933 0 01-1.317.003l-10.455-10.399a.94.94 0 01-.157-1.21c19.354-29.24 42.61-51.181 67.716-65.977 27.387-16.137 56.989-23.778 86.155-23.135 29.175.641 57.923 9.572 83.596 26.565 22.511 14.903 42.672 36.017 58.689 63.185a.935.935 0 01-.123 1.169l-10.119 10.056a.936.936 0 01-1.309-.175 136.27 136.27 0 00-18.448-19.669c-30.128-26.382-71.236-39.65-113.14-39.945-41.922-.293-84.638 12.394-117.95 37.911z"/></svg>